# xmcd
#
# Track frame offsets:
# 150
# 20472
# 52741
# 68866
# 91383
# 114367
# 129800
# 147153
# 167205
# 185956
# 201344
# 236362
# 251279
# 267802
# 286035
#
# Disc length: 4116 seconds
#
#
# Revision: 0
# Processed by: cddbd v1.5PL3 Copyright (c) Steve Scherf et al.
# Submitted via: FreeRIP 2.53 
#
DISCID=ca10120f
DTITLE=Elliott Murphy - Somewhere In These Nightlights - CD2
DYEAR=1997
DGENRE=Country
TTITLE0=Selling The gold
TTITLE1=Route 66 - Gloria
TTITLE2=Like A Rolling Stone
TTITLE3=Just A Story From America
TTITLE4=Rock Ballad
TTITLE5=Last Of The Rock Stars
TTITLE6=Visions Of The Night
TTITLE7=A Touch Of Mercy
TTITLE8=Dusty Roses
TTITLE9=Hometown
TTITLE10=Like A Great Gatsby - Marilyn - Never As Old As You
TTITLE11=Going Through Something
TTITLE12=Small Room
TTITLE13=Change Will Come
TTITLE14=Diamonds By The Yard
EXTD=A Live Recording - \nSens-Tȇtre, France, March 1st, 1997
EXTT0=
EXTT1=
EXTT2=
EXTT3=
EXTT4=
EXTT5=
EXTT6=
EXTT7=
EXTT8=
EXTT9=
EXTT10=
EXTT11=
EXTT12=
EXTT13=
EXTT14=
PLAYORDER=
